<mxfile host="app.diagrams.net" modified="2024-02-18T20:16:47.771Z" agent="Mozilla/5.0 (X11; Ubuntu; Linux x86_64; rv:122.0) Gecko/20100101 Firefox/122.0" version="23.1.5" etag="mJ31RB342UbksfyHjmHu" type="github">
  <diagram name="Page-1" id="QfqvCRqg2DWQY-_hMG5H">
    <mxGraphModel>
      <root>
        <mxCell id="0" />
        <mxCell id="1" parent="0" />
      </root>
    </mxGraphModel>
  </diagram>
</mxfile>
